<?xml version="1.0" encoding="utf-8"?>
<!-- Generator: Adobe Illustrator 18.1.1, SVG Export Plug-In . SVG Version: 6.00 Build 0)  -->
<svg version="1.1" id="Layer_1" xmlns="http://www.w3.org/2000/svg" xmlns:xlink="http://www.w3.org/1999/xlink" x="0px" y="0px"
	 viewBox="0 0 2160 2160" enable-background="new 0 0 2160 2160" xml:space="preserve">
<g>
	<g>
		<path d="M735.7,1534.6L715.4,1657c137.8,115.9,349,166.3,380.1,80.1l1.4-53.2L735.7,1534.6z"/>
	</g>
	<path d="M1098.8,1745c-0.5,0.6-0.7,0.7-0.8,0.9c-0.3,0.6-0.5,1.3-0.7,2c-3.5,13.2-11.9,22.8-24.1,29c-7.6,3.8-15.8,7-24.1,9.2
		c-24.2,6.2-48.9,5.3-73.4,2.2c-33.2-4.2-65.1-13.4-96.1-25.5c-56.8-22.2-108.4-52.9-156.7-88.8c-11.9-8.9-11.9-8.9-26-2.9
		c-28.5,12.1-49.3,31.4-60,59.9c-6,16.1-8.1,32.8-8.2,49.8c0,3.1,1.5,5.1,3.6,7.2c35,32.6,69.5,65.8,105,97.8
		c40.2,36.2,82.7,69.8,128.3,99.7c30,19.6,61.2,37.3,95,50.2c23.5,9,47.5,15.7,73,16.2c47.2,0.9,93.5-4.7,138.8-17.5
		c24.6-7,48.3-16.1,70.7-28.4c3.6-2,5.1-4.2,4.9-8.3c-1.3-27.3-3.9-54.5-9.9-81.3c-7.4-33.3-18.9-65.1-37.9-94.1
		c-22.5-34.4-52.8-59.9-92.8-74.5C1104.5,1746.7,1101.5,1745.9,1098.8,1745z"/>
	<path fill="#010101" d="M1429.1,1523.1c-0.8,3.1-1.3,5.3-1.9,7.6c-5.8,25.7-11.8,51.5-17.4,77.3c-1.1,5.2-3.4,7.9-8.8,9.3
		c-36.5,9.6-72.8,19.5-109.2,29.4c-2.5,0.7-4.9,1.4-7.5,2.2c0.1,1.5-0.1,2.7,0.2,3.8c6.4,27.1,13,54.1,19.3,81.2
		c0.9,3.7,3.1,4.9,6.1,5.8c65.4,20.8,132.3,31.9,201.2,30.6c59.9-1.2,118.1-11.6,175-30.2c29.6-9.7,58.4-21.4,86.5-35
		c2.4-1.2,5.2-2.9,6.2-5.2c10.1-22.7,10-44.8-5-65.7c-7.5-10.5-17.2-18.7-27.8-26c-15.3-10.5-31.8-18.5-48.9-25.4
		c-35.8-14.4-72.9-24.2-110.4-32.6c-40.7-9.1-81.9-16-123.1-22.4C1452.2,1526.3,1441,1524.8,1429.1,1523.1z"/>
	<g>
		<path fill="none" stroke="#000000" stroke-width="50" stroke-miterlimit="10" d="M921.2,133c154.6,0,257.8,51.8,267.6,167.9"/>
		<polygon fill="#FFFFFF" points="452.6,989.9 524.8,397.8 970.7,250.6 1422,309.4 1545.4,989.9 1434.1,1618.5 1050.2,1732.6 
			603.9,1510.1 		"/>
		<path fill="none" stroke="#000000" stroke-width="50" stroke-miterlimit="10" d="M707.8,517.4C707.8,262.1,720,133,921.2,133"/>
		<polygon points="378.5,944 414.8,1076.1 950.8,1140.8 1588.7,1064 1619.5,927.9 955.5,991.6 		"/>
		<path fill="none" stroke="#000000" stroke-width="29" stroke-miterlimit="10" d="M977.7,450.8h261c0,180.6-35.1,248.7-130.5,249.8
			C1006.4,700.6,977.7,620,977.7,450.8z"/>
		<path fill="#FFFFFF" stroke="#000000" stroke-width="29" stroke-miterlimit="10" d="M1363.1,464.6h216.9
			c-7.2,172.6-8.5,249.8-97.4,250.8C1361.8,715.4,1359.2,616.3,1363.1,464.6z"/>
		<path fill="none" stroke="#000000" stroke-width="29" stroke-miterlimit="10" d="M1235,505.4c47-12.8,87.4-9,120,8.5"/>
		<path fill="#F1595B" d="M1387,800.4c8.5-3.7,16.1-7.3,24.1-10.2c7.4-2.7,15.1-3.8,23.1-2.2c9.5,2,15.6,8.5,17,18.1
			c1.1,7.8-0.4,15.2-3.2,22.3c-3.6,9.4-9,17.7-15.3,25.4c-10.2,12.6-22.4,23-35.6,32.3c-2.2,1.6-4.1,2.3-6.9,1
			c-16.5-7.9-32-17.4-44.6-30.9c-9.5-10.3-16.9-21.8-18-36.2c-0.3-4.4-0.1-9,1-13.2c4-15.6,18.7-23.6,35.2-19.4
			c6.7,1.7,12.6,4.8,18.1,8.9C1383.6,797.7,1385.4,799.1,1387,800.4z"/>
		<path d="M1114.5,882c-32.7,0-51.1-13.4-51.1-37c0.1-26.8,16.6-46.4,39-46.4c23.4,0.1,47.1,21.8,47.2,43.3
			C1149.7,863.5,1133.4,882,1114.5,882z"/>
		<path d="M1188.4,836.8c0-25.4,16.4-43,40-43c22.9,0,43.3,19.6,43.2,41.5c0,22.2-21.9,45.5-42.4,45.1
			C1205.3,880,1188.4,862,1188.4,836.8z"/>
		<ellipse cx="722" cy="575.7" rx="158.2" ry="143.4"/>
	</g>
	<line stroke="#000000" stroke-width="9" stroke-miterlimit="10" x1="955.9" y1="1176.3" x2="1041" y2="1675.7"/>
	<line stroke="#000000" stroke-width="9" stroke-miterlimit="10" x1="962.2" y1="742.5" x2="955.9" y2="925.1"/>
</g>
</svg>
